HIERARCHY
ROOT mixamorig:Hips
{
	OFFSET -0.000008 104.274872 1.554316
	CHANNELS 6 Xposition Yposition Zposition Xrotation Yrotation Zrotation
	JOINT mixamorig:Spine
	{
		OFFSET -0.000005 10.181595 0.131519
		CHANNELS 6 Xposition Yposition Zposition Xrotation Yrotation Zrotation
		JOINT mixamorig:Spine1
		{
			OFFSET -0.000000 9.893959 -1.470707
			CHANNELS 6 Xposition Yposition Zposition Xrotation Yrotation Zrotation
			JOINT mixamorig:Spine2
			{
				OFFSET -0.000000 9.220757 -1.370641
				CHANNELS 6 Xposition Yposition Zposition Xrotation Yrotation Zrotation
				JOINT mixamorig:Neck
				{
					OFFSET 0.000001 16.740417 -2.049036
					CHANNELS 6 Xposition Yposition Zposition Xrotation Yrotation Zrotation
					JOINT mixamorig:Head
					{
						OFFSET 0.000000 9.617874 1.685006
						CHANNELS 6 Xposition Yposition Zposition Xrotation Yrotation Zrotation
						JOINT mixamorig:HeadTop_End
						{
							OFFSET 0.000002 22.037354 7.501101
							CHANNELS 6 Xposition Yposition Zposition Xrotation Yrotation Zrotation
							End Site
							{
								OFFSET 0.000168 2310.654297 -282.823242
							}
						}
					}
				}
				JOINT mixamorig:RightShoulder
				{
					OFFSET -4.569970 11.014908 -2.160885
					CHANNELS 6 Xposition Yposition Zposition Xrotation Yrotation Zrotation
					JOINT mixamorig:RightArm
					{
						OFFSET -10.592851 -0.524811 -2.232101
						CHANNELS 6 Xposition Yposition Zposition Xrotation Yrotation Zrotation
						JOINT mixamorig:RightForeArm
						{
							OFFSET -27.841511 0.000031 -0.000004
							CHANNELS 6 Xposition Yposition Zposition Xrotation Yrotation Zrotation
							JOINT mixamorig:RightHand
							{
								OFFSET -28.328831 -0.000015 0.000015
								CHANNELS 6 Xposition Yposition Zposition Xrotation Yrotation Zrotation
								JOINT mixamorig:RightHandThumb1
								{
									OFFSET -2.464806 -1.573990 2.681852
									CHANNELS 6 Xposition Yposition Zposition Xrotation Yrotation Zrotation
									JOINT mixamorig:RightHandThumb2
									{
										OFFSET -3.215179 -1.872803 1.924282
										CHANNELS 6 Xposition Yposition Zposition Xrotation Yrotation Zrotation
										JOINT mixamorig:RightHandThumb3
										{
											OFFSET -2.654831 -1.527969 1.512609
											CHANNELS 6 Xposition Yposition Zposition Xrotation Yrotation Zrotation
											JOINT mixamorig:RightHandThumb4
											{
												OFFSET -2.018814 -1.152008 1.108052
												CHANNELS 6 Xposition Yposition Zposition Xrotation Yrotation Zrotation
												End Site
												{
													OFFSET -188.809540 -114.533607 132.431396
												}
											}
										}
									}
								}
								JOINT mixamorig:RightHandIndex1
								{
									OFFSET -9.108284 -0.517868 2.259835
									CHANNELS 6 Xposition Yposition Zposition Xrotation Yrotation Zrotation
									JOINT mixamorig:RightHandIndex2
									{
										OFFSET -3.699989 0.000000 0.001215
										CHANNELS 6 Xposition Yposition Zposition Xrotation Yrotation Zrotation
										JOINT mixamorig:RightHandIndex3
										{
											OFFSET -2.850006 0.000031 -0.000522
											CHANNELS 6 Xposition Yposition Zposition Xrotation Yrotation Zrotation
											JOINT mixamorig:RightHandIndex4
											{
												OFFSET -2.772186 -0.000015 -0.000020
												CHANNELS 6 Xposition Yposition Zposition Xrotation Yrotation Zrotation
												End Site
												{
													OFFSET -277.218445 0.000000 -0.050231
												}
											}
										}
									}
								}
								JOINT mixamorig:RightHandMiddle1
								{
									OFFSET -9.532516 -0.000031 -0.000023
									CHANNELS 6 Xposition Yposition Zposition Xrotation Yrotation Zrotation
									JOINT mixamorig:RightHandMiddle2
									{
										OFFSET -3.700005 -0.000015 0.003713
										CHANNELS 6 Xposition Yposition Zposition Xrotation Yrotation Zrotation
										JOINT mixamorig:RightHandMiddle3
										{
											OFFSET -2.949974 0.000015 -0.002054
											CHANNELS 6 Xposition Yposition Zposition Xrotation Yrotation Zrotation
											JOINT mixamorig:RightHandMiddle4
											{
												OFFSET -2.946640 0.000000 -0.000156
												CHANNELS 6 Xposition Yposition Zposition Xrotation Yrotation Zrotation
												End Site
												{
													OFFSET -294.664337 0.000000 -0.113670
												}
											}
										}
									}
								}
								JOINT mixamorig:RightHandRing1
								{
									OFFSET -9.103600 -0.043076 -1.865134
									CHANNELS 6 Xposition Yposition Zposition Xrotation Yrotation Zrotation
									JOINT mixamorig:RightHandRing2
									{
										OFFSET -3.379288 0.000000 -0.001055
										CHANNELS 6 Xposition Yposition Zposition Xrotation Yrotation Zrotation
										JOINT mixamorig:RightHandRing3
										{
											OFFSET -2.889687 -0.000015 0.000379
											CHANNELS 6 Xposition Yposition Zposition Xrotation Yrotation Zrotation
											JOINT mixamorig:RightHandRing4
											{
												OFFSET -2.638809 -0.000015 0.000941
												CHANNELS 6 Xposition Yposition Zposition Xrotation Yrotation Zrotation
												End Site
												{
													OFFSET -263.880371 0.000000 0.516020
												}
											}
										}
									}
								}
								JOINT mixamorig:RightHandPinky1
								{
									OFFSET -8.076683 -0.486710 -3.806280
									CHANNELS 6 Xposition Yposition Zposition Xrotation Yrotation Zrotation
									JOINT mixamorig:RightHandPinky2
									{
										OFFSET -3.600014 -0.000015 -0.003747
										CHANNELS 6 Xposition Yposition Zposition Xrotation Yrotation Zrotation
										JOINT mixamorig:RightHandPinky3
										{
											OFFSET -2.099983 0.000000 -0.005739
											CHANNELS 6 Xposition Yposition Zposition Xrotation Yrotation Zrotation
											JOINT mixamorig:RightHandPinky4
											{
												OFFSET -2.115768 -0.000031 -0.003680
												CHANNELS 6 Xposition Yposition Zposition Xrotation Yrotation Zrotation
												End Site
												{
													OFFSET -211.577087 0.000000 -0.350686
												}
											}
										}
									}
								}
							}
						}
					}
				}
				JOINT mixamorig:LeftShoulder
				{
					OFFSET 4.570447 11.014725 -2.160855
					CHANNELS 6 Xposition Yposition Zposition Xrotation Yrotation Zrotation
					JOINT mixamorig:LeftArm
					{
						OFFSET 10.592371 -0.524597 -2.232119
						CHANNELS 6 Xposition Yposition Zposition Xrotation Yrotation Zrotation
						JOINT mixamorig:LeftForeArm
						{
							OFFSET 27.841532 -0.000031 0.000026
							CHANNELS 6 Xposition Yposition Zposition Xrotation Yrotation Zrotation
							JOINT mixamorig:LeftHand
							{
								OFFSET 28.328846 -0.000061 0.000022
								CHANNELS 6 Xposition Yposition Zposition Xrotation Yrotation Zrotation
								JOINT mixamorig:LeftHandThumb1
								{
									OFFSET 2.466141 -1.576172 2.681732
									CHANNELS 6 Xposition Yposition Zposition Xrotation Yrotation Zrotation
									JOINT mixamorig:LeftHandThumb2
									{
										OFFSET 3.217812 -1.872070 1.916482
										CHANNELS 6 Xposition Yposition Zposition Xrotation Yrotation Zrotation
										JOINT mixamorig:LeftHandThumb3
										{
											OFFSET 2.656029 -1.528778 1.514513
											CHANNELS 6 Xposition Yposition Zposition Xrotation Yrotation Zrotation
											JOINT mixamorig:LeftHandThumb4
											{
												OFFSET 2.020889 -1.154053 1.115139
												CHANNELS 6 Xposition Yposition Zposition Xrotation Yrotation Zrotation
												End Site
												{
													OFFSET 190.885437 -115.081749 130.048782
												}
											}
										}
									}
								}
								JOINT mixamorig:LeftHandIndex1
								{
									OFFSET 9.109314 -0.518021 2.259871
									CHANNELS 6 Xposition Yposition Zposition Xrotation Yrotation Zrotation
									JOINT mixamorig:LeftHandIndex2
									{
										OFFSET 3.699989 0.000000 -0.000322
										CHANNELS 6 Xposition Yposition Zposition Xrotation Yrotation Zrotation
										JOINT mixamorig:LeftHandIndex3
										{
											OFFSET 2.850006 0.000000 0.000352
											CHANNELS 6 Xposition Yposition Zposition Xrotation Yrotation Zrotation
											JOINT mixamorig:LeftHandIndex4
											{
												OFFSET 2.774864 -0.000031 -0.000027
												CHANNELS 6 Xposition Yposition Zposition Xrotation Yrotation Zrotation
												End Site
												{
													OFFSET 277.486267 0.000000 -0.009857
												}
											}
										}
									}
								}
								JOINT mixamorig:LeftHandMiddle1
								{
									OFFSET 9.533394 0.000061 0.000044
									CHANNELS 6 Xposition Yposition Zposition Xrotation Yrotation Zrotation
									JOINT mixamorig:LeftHandMiddle2
									{
										OFFSET 3.699989 -0.000015 -0.000231
										CHANNELS 6 Xposition Yposition Zposition Xrotation Yrotation Zrotation
										JOINT mixamorig:LeftHandMiddle3
										{
											OFFSET 2.949997 -0.000015 -0.000059
											CHANNELS 6 Xposition Yposition Zposition Xrotation Yrotation Zrotation
											JOINT mixamorig:LeftHandMiddle4
											{
												OFFSET 2.952896 0.000031 0.000063
												CHANNELS 6 Xposition Yposition Zposition Xrotation Yrotation Zrotation
												End Site
												{
													OFFSET 295.289337 0.000000 0.022810
												}
											}
										}
									}
								}
								JOINT mixamorig:LeftHandRing1
								{
									OFFSET 9.104523 -0.042999 -1.865074
									CHANNELS 6 Xposition Yposition Zposition Xrotation Yrotation Zrotation
									JOINT mixamorig:LeftHandRing2
									{
										OFFSET 3.150009 -0.000031 0.000043
										CHANNELS 6 Xposition Yposition Zposition Xrotation Yrotation Zrotation
										JOINT mixamorig:LeftHandRing3
										{
											OFFSET 2.949982 -0.000015 0.000040
											CHANNELS 6 Xposition Yposition Zposition Xrotation Yrotation Zrotation
											JOINT mixamorig:LeftHandRing4
											{
												OFFSET 2.644348 0.000000 0.000057
												CHANNELS 6 Xposition Yposition Zposition Xrotation Yrotation Zrotation
												End Site
												{
													OFFSET 264.434631 0.000000 0.012105
												}
											}
										}
									}
								}
								JOINT mixamorig:LeftHandPinky1
								{
									OFFSET 8.077789 -0.486847 -3.806259
									CHANNELS 6 Xposition Yposition Zposition Xrotation Yrotation Zrotation
									JOINT mixamorig:LeftHandPinky2
									{
										OFFSET 3.599953 0.000031 0.014727
										CHANNELS 6 Xposition Yposition Zposition Xrotation Yrotation Zrotation
										JOINT mixamorig:LeftHandPinky3
										{
											OFFSET 2.100021 0.000015 0.007705
											CHANNELS 6 Xposition Yposition Zposition Xrotation Yrotation Zrotation
											JOINT mixamorig:LeftHandPinky4
											{
												OFFSET 2.125504 0.000031 0.007517
												CHANNELS 6 Xposition Yposition Zposition Xrotation Yrotation Zrotation
												End Site
												{
													OFFSET 212.550781 0.000000 0.625752
												}
											}
										}
									}
								}
							}
						}
					}
				}
			}
		}
	}
	JOINT mixamorig:RightUpLeg
	{
		OFFSET -8.207787 -6.751648 -1.599560
		CHANNELS 6 Xposition Yposition Zposition Xrotation Yrotation Zrotation
		JOINT mixamorig:RightLeg
		{
			OFFSET -0.000002 -44.370117 0.345942
			CHANNELS 6 Xposition Yposition Zposition Xrotation Yrotation Zrotation
			JOINT mixamorig:RightFoot
			{
				OFFSET 0.000003 -44.423679 -3.043532
				CHANNELS 6 Xposition Yposition Zposition Xrotation Yrotation Zrotation
				JOINT mixamorig:RightToeBase
				{
					OFFSET -0.000002 -8.728671 10.710558
					CHANNELS 6 Xposition Yposition Zposition Xrotation Yrotation Zrotation
					JOINT mixamorig:RightToe_End
					{
						OFFSET -0.000001 -0.000679 9.278119
						CHANNELS 6 Xposition Yposition Zposition Xrotation Yrotation Zrotation
						End Site
						{
							OFFSET 0.000000 -0.067690 927.812134
						}
					}
				}
			}
		}
	}
	JOINT mixamorig:LeftUpLeg
	{
		OFFSET 8.207793 -6.751686 -1.599556
		CHANNELS 6 Xposition Yposition Zposition Xrotation Yrotation Zrotation
		JOINT mixamorig:LeftLeg
		{
			OFFSET -0.000004 -44.370014 0.346954
			CHANNELS 6 Xposition Yposition Zposition Xrotation Yrotation Zrotation
			JOINT mixamorig:LeftFoot
			{
				OFFSET -0.000001 -44.423672 -3.044401
				CHANNELS 6 Xposition Yposition Zposition Xrotation Yrotation Zrotation
				JOINT mixamorig:LeftToeBase
				{
					OFFSET -0.000002 -8.728669 10.710558
					CHANNELS 6 Xposition Yposition Zposition Xrotation Yrotation Zrotation
					JOINT mixamorig:LeftToe_End
					{
						OFFSET -0.000003 -0.000679 9.278133
						CHANNELS 6 Xposition Yposition Zposition Xrotation Yrotation Zrotation
						End Site
						{
							OFFSET 0.000000 -0.068021 927.813477
						}
					}
				}
			}
		}
	}
}
MOTION
Frames: 3
Frame Time: 0.033333
0.000006 104.270477 1.554256 0.000010 0.000003 -0.000113 -0.000005 10.181587 0.131522 0.000001 -0.000003 0.000084 -0.000000 9.893967 -1.470711 0.000001 0.000000 -0.000000 -0.000000 9.220802 -1.370642 0.000000 -0.000000 -0.000000 0.000001 16.740433 -2.049030 0.000000 -0.000000 -0.000000 0.000000 9.617859 1.685014 0.000000 0.000000 0.000000 0.000002 22.037384 7.501101 0.000000 -0.000000 0.000000 -4.569968 11.014880 -2.160881 0.000008 0.000001 -0.000038 -10.592868 -0.524780 -2.231887 76.427816 32.322692 -25.705263 -27.841520 0.000032 0.000544 -54.376898 106.859300 69.398383 -28.328812 0.000019 0.000026 -0.000317 -0.000044 0.000006 -2.464409 -1.573930 2.682365 -28.952031 -148.172485 25.728684 -3.215280 -1.872570 1.924652 153.836720 32.479107 9.978723 -2.654956 -1.527896 1.513086 145.265010 27.396686 -35.535726 -2.018833 -1.152003 1.108064 -0.000001 -0.000001 -0.000002 -9.108381 -0.517566 2.260176 111.360996 16.664041 -24.285311 -3.700055 0.000319 0.001558 107.010438 12.059178 -16.219454 -2.850087 0.000363 -0.000196 108.449245 8.505542 -11.782682 -2.772171 -0.000001 -0.000015 0.000001 -0.000002 -0.000000 -9.532601 0.000259 0.000313 110.469444 15.979064 -23.066594 -3.700058 0.000326 0.004047 109.948219 10.992177 -15.500469 -2.950057 0.000330 -0.001732 111.719656 8.604374 -12.651423 -2.946618 0.000012 -0.000151 0.000001 -0.000000 0.000001 -9.103702 -0.042775 -1.864807 110.768613 16.761530 -24.032108 -3.379329 0.000294 -0.000726 112.874743 9.820799 -14.782935 -2.889749 0.000344 0.000742 116.746129 6.394978 -10.440279 -2.638813 -0.000017 0.000941 0.000000 -0.000001 -0.000002 -8.076766 -0.486409 -3.805974 94.037846 21.916040 -23.307387 -3.600048 0.000277 -0.003449 103.010871 11.547163 -14.028387 -2.100017 0.000307 -0.005411 108.418099 5.545073 -7.381017 -2.115776 -0.000055 -0.003681 0.000001 0.000002 -0.000003 4.570446 11.014691 -2.160851 -0.000018 0.000010 -0.000021 10.592401 -0.524480 -2.232371 73.196043 -13.016058 9.684642 27.841820 0.000072 -0.000249 99.996927 -69.820707 79.497610 28.328825 -0.000029 0.000018 0.000023 -0.000089 -0.000000 2.466045 -1.576183 2.681900 -29.282629 152.107561 -26.927871 3.217797 -1.871730 1.916366 155.798978 -30.959427 0.806760 2.656093 -1.528610 1.514436 142.477528 -27.754940 36.125980 2.020899 -1.154081 1.115152 -0.000003 0.000011 0.000006 9.109372 -0.517821 2.259711 95.206287 -12.878183 14.080074 3.700036 0.000189 -0.000478 93.135558 -10.820909 11.443391 2.850039 0.000212 0.000206 91.761242 -11.109058 11.452309 2.774879 -0.000031 -0.000024 0.000002 0.000001 0.000000 9.533451 0.000228 -0.000108 89.765222 -13.804220 13.739686 3.700037 0.000175 -0.000375 91.283579 -14.310679 14.628646 2.950078 0.000172 -0.000179 90.070190 -18.387767 18.413044 2.952866 -0.000030 0.000065 0.000001 0.000001 -0.000000 9.104590 -0.042851 -1.865225 87.101195 -16.008553 15.229790 3.150080 0.000188 -0.000088 93.470510 -18.237674 19.358353 2.950047 0.000159 -0.000037 95.319033 -19.349200 21.195557 2.644331 0.000029 0.000051 0.000000 0.000000 0.000001 8.077845 -0.486767 -3.806393 68.697954 -22.552308 15.957303 3.599999 0.000141 0.014589 66.041208 -18.035386 12.136731 2.100033 0.000128 0.007555 67.948020 -16.520148 11.524226 2.125509 -0.000004 0.007519 -0.000001 -0.000001 -0.000002 -8.207786 -6.751667 -1.599560 -0.077001 -0.000003 0.000080 -0.000002 -44.370110 0.345938 0.153719 -0.000000 -0.000000 0.000000 -44.423679 -3.043532 -0.076700 0.000000 -0.000002 -0.000006 -8.728667 10.710559 -0.000009 -0.000000 -0.000000 -0.000001 -0.000679 9.278123 0.000000 -0.000000 -0.000000 8.207792 -6.751710 -1.599556 -0.074518 -0.000003 0.000081 -0.000002 -44.370014 0.346960 0.148822 0.000002 0.000000 -0.000001 -44.423664 -3.044403 -0.074314 0.000000 -0.000002 -0.000004 -8.728671 10.710558 0.000007 -0.000000 -0.000000 0.000000 -0.000680 9.278137 -0.000000 0.000000 -0.000001 
0.000006 104.270477 1.554256 0.000010 0.000003 -0.000113 -0.000005 10.181587 0.131522 0.000001 -0.000003 0.000084 -0.000000 9.893967 -1.470711 0.000001 0.000000 -0.000000 -0.000000 9.220802 -1.370642 0.000000 -0.000000 -0.000000 0.000001 16.740433 -2.049030 0.000000 -0.000000 -0.000000 0.000000 9.617859 1.685014 0.000000 0.000000 0.000000 0.000002 22.037384 7.501101 0.000000 -0.000000 0.000000 -4.569968 11.014880 -2.160881 0.000008 0.000001 -0.000038 -10.592866 -0.524785 -2.231863 75.570524 37.412238 -29.417270 -27.841520 -0.000004 0.000554 -50.357298 104.742891 62.751304 -28.328806 -0.000006 0.000032 -0.000322 -0.000044 0.000007 -2.464392 -1.573855 2.682324 -42.811148 -154.967170 0.757735 -3.215276 -1.872593 1.924630 151.820407 32.144154 10.096401 -2.654965 -1.527881 1.513072 145.977234 27.653756 -30.990675 -2.018839 -1.152004 1.108071 -0.000001 -0.000000 0.000007 -9.108362 -0.517555 2.260192 110.551987 14.737764 -21.205987 -3.700068 0.000317 0.001563 107.363245 10.817306 -14.648075 -2.850096 0.000370 -0.000208 105.932354 8.444615 -11.176166 -2.772181 -0.000015 -0.000023 -0.000001 -0.000001 -0.000002 -9.532589 0.000272 0.000313 107.939310 14.406920 -19.907469 -3.700052 0.000323 0.004036 108.160868 11.325036 -15.458426 -2.950058 0.000346 -0.001751 108.105065 10.364457 -14.248399 -2.946619 0.000014 -0.000154 0.000003 0.000003 0.000000 -9.103689 -0.042756 -1.864791 107.187402 16.483903 -22.165808 -3.379353 0.000290 -0.000735 109.818315 11.156464 -15.853516 -2.889774 0.000327 0.000700 113.365806 8.546632 -13.042113 -2.638804 0.000000 0.000936 -0.000002 -0.000002 0.000001 -8.076760 -0.486403 -3.805979 93.865685 21.959101 -23.285001 -3.600058 0.000265 -0.003451 99.618213 13.278578 -15.246323 -2.100011 0.000301 -0.005414 104.508581 7.626444 -9.550204 -2.115775 -0.000042 -0.003677 0.000000 -0.000003 -0.000003 4.570446 11.014691 -2.160851 -0.000018 0.000010 -0.000021 10.592418 -0.524470 -2.232373 72.894545 -18.465833 13.691586 27.841827 0.000066 -0.000196 103.959359 -74.758756 88.675561 28.328838 -0.000029 0.000015 0.000026 -0.000089 0.000000 2.466209 -1.576097 2.681842 2.926011 163.619722 -90.020753 3.217832 -1.871754 1.916379 165.525291 -28.582248 13.980555 2.656104 -1.528669 1.514475 137.563644 -28.273981 54.952977 2.020894 -1.154048 1.115147 0.000003 0.000001 0.000004 9.109385 -0.517841 2.259738 96.099669 -18.330273 20.338473 3.700041 0.000180 -0.000474 93.239370 -10.198865 10.806333 2.850032 0.000240 0.000192 93.119650 -7.279496 7.684569 2.774875 -0.000042 -0.000025 0.000002 0.000001 0.000002 9.533473 0.000215 -0.000089 92.854960 -18.728160 19.657641 3.700033 0.000219 -0.000388 92.904096 -9.227372 9.702388 2.950053 0.000206 -0.000205 94.105978 -10.329813 11.096373 2.952877 -0.000014 0.000059 0.000003 -0.000000 0.000001 9.104597 -0.042850 -1.865213 88.113648 -18.286279 17.705396 3.150047 0.000225 -0.000103 95.142206 -11.256971 12.309661 2.950022 0.000213 -0.000093 96.952015 -10.843139 12.237526 2.644322 0.000048 0.000058 -0.000001 -0.000000 -0.000002 8.077833 -0.486753 -3.806410 70.293090 -20.358347 14.849233 3.600008 0.000141 0.014586 72.446369 -18.160225 13.754066 2.100057 0.000159 0.007548 75.883381 -14.619209 11.813141 2.125500 0.000000 0.007519 -0.000001 0.000001 -0.000002 -8.207786 -6.751667 -1.599560 -0.077001 -0.000003 0.000080 -0.000002 -44.370110 0.345938 0.153719 -0.000000 -0.000000 0.000000 -44.423679 -3.043532 -0.076700 0.000000 -0.000002 -0.000006 -8.728667 10.710559 -0.000009 -0.000000 -0.000000 -0.000001 -0.000679 9.278123 0.000000 -0.000000 -0.000000 8.207792 -6.751710 -1.599556 -0.074518 -0.000003 0.000081 -0.000002 -44.370014 0.346960 0.148822 0.000002 0.000000 -0.000001 -44.423664 -3.044403 -0.074314 0.000000 -0.000002 -0.000004 -8.728671 10.710558 0.000007 -0.000000 -0.000000 0.000000 -0.000680 9.278137 -0.000000 0.000000 -0.000001 
0.000006 104.270477 1.554256 0.000010 0.000003 -0.000113 -0.000005 10.181587 0.131522 0.000001 -0.000003 0.000084 -0.000000 9.893967 -1.470711 0.000001 0.000000 -0.000000 -0.000000 9.220802 -1.370642 0.000000 -0.000000 -0.000000 0.000001 16.740433 -2.049030 0.000000 -0.000000 -0.000000 0.000000 9.617859 1.685014 0.000000 0.000000 0.000000 0.000002 22.037384 7.501101 0.000000 -0.000000 0.000000 -4.569968 11.014880 -2.160881 0.000008 0.000001 -0.000038 -10.592854 -0.524797 -2.231834 74.019395 43.589659 -33.548510 -27.841522 0.000017 0.000544 -45.455889 102.973585 55.520818 -28.328836 0.000012 0.000024 -0.000324 -0.000045 0.000007 -2.464406 -1.573912 2.682338 -34.305301 -148.927630 16.103105 -3.215259 -1.872555 1.924641 152.869428 32.081419 8.460895 -2.654967 -1.527855 1.513072 146.412823 27.800244 -28.592418 -2.018831 -1.152019 1.108052 -0.000002 -0.000000 0.000007 -9.108357 -0.517560 2.260190 113.345985 14.540539 -22.029365 -3.700068 0.000316 0.001565 111.228162 10.034409 -14.587267 -2.850061 0.000383 -0.000192 111.162688 6.590919 -9.605836 -2.772165 -0.000015 -0.000017 0.000001 -0.000001 0.000001 -9.532582 0.000275 0.000302 109.325319 12.761297 -18.119604 -3.700059 0.000340 0.004026 109.969748 9.072327 -12.790841 -2.950053 0.000354 -0.001758 109.837474 8.641851 -12.271039 -2.946621 0.000013 -0.000155 0.000005 0.000003 -0.000002 -9.103681 -0.042735 -1.864811 108.755244 13.492203 -18.688600 -3.379340 0.000307 -0.000715 112.201150 9.406926 -13.987139 -2.889757 0.000355 0.000720 115.039633 7.671118 -12.096797 -2.638801 -0.000001 0.000943 -0.000001 0.000003 -0.000000 -8.076740 -0.486383 -3.805985 97.564348 16.129528 -18.206812 -3.600050 0.000279 -0.003456 102.368669 9.868397 -11.801643 -2.100004 0.000307 -0.005402 105.803612 6.105542 -7.775494 -2.115747 -0.000040 -0.003678 -0.000000 -0.000001 -0.000002 4.570446 11.014691 -2.160851 -0.000018 0.000010 -0.000021 10.592441 -0.524470 -2.232403 72.362501 -27.490407 20.286422 27.841827 0.000031 -0.000194 105.007683 -76.821555 91.885893 28.328838 -0.000027 0.000023 0.000023 -0.000087 0.000000 2.466257 -1.575921 2.681800 21.747811 186.940324 -135.631110 3.217865 -1.871897 1.916450 166.731680 -15.536553 58.210690 2.656087 -1.528695 1.514511 133.372175 -29.817454 62.351007 2.020890 -1.154059 1.115144 0.000002 0.000003 0.000006 9.109410 -0.517862 2.259768 93.824102 -24.233112 25.838433 3.700063 0.000195 -0.000458 96.560713 -12.453936 13.973029 2.850032 0.000239 0.000214 97.078483 -7.711184 8.722862 2.774877 -0.000019 -0.000026 -0.000000 0.000000 0.000001 9.533498 0.000194 -0.000072 90.541404 -22.589452 22.788901 3.700048 0.000210 -0.000370 97.175506 -9.306980 10.542622 2.950050 0.000226 -0.000203 98.528614 -8.581878 9.961564 2.952861 -0.000035 0.000062 -0.000001 -0.000001 -0.000001 9.104609 -0.042874 -1.865200 85.490384 -22.169805 20.529127 3.150034 0.000217 -0.000086 97.870122 -12.987758 14.888498 2.950034 0.000220 -0.000077 99.657883 -9.917017 11.737473 2.644331 0.000013 0.000058 -0.000004 -0.000001 0.000001 8.077858 -0.486752 -3.806392 73.601695 -22.824156 17.649996 3.599992 0.000160 0.014580 79.826852 -19.904582 17.159643 2.100040 0.000175 0.007541 83.869348 -15.242884 14.158742 2.125510 -0.000001 0.007518 -0.000001 -0.000000 0.000001 -8.207786 -6.751667 -1.599560 -0.077001 -0.000003 0.000080 -0.000002 -44.370110 0.345938 0.153719 -0.000000 -0.000000 0.000000 -44.423679 -3.043532 -0.076700 0.000000 -0.000002 -0.000006 -8.728667 10.710559 -0.000009 -0.000000 -0.000000 -0.000001 -0.000679 9.278123 0.000000 -0.000000 -0.000000 8.207792 -6.751710 -1.599556 -0.074518 -0.000003 0.000081 -0.000002 -44.370014 0.346960 0.148822 0.000002 0.000000 -0.000001 -44.423664 -3.044403 -0.074314 0.000000 -0.000002 -0.000004 -8.728671 10.710558 0.000007 -0.000000 -0.000000 0.000000 -0.000680 9.278137 -0.000000 0.000000 -0.000001 
